<?xml version="1.0" encoding="UTF-8" standalone="no"?>
<svg
   xmlns:dc="http://purl.org/dc/elements/1.1/"
   xmlns:cc="http://creativecommons.org/ns#"
   xmlns:rdf="http://www.w3.org/1999/02/22-rdf-syntax-ns#"
   xmlns:svg="http://www.w3.org/2000/svg"
   xmlns="http://www.w3.org/2000/svg"
   xmlns:sodipodi="http://sodipodi.sourceforge.net/DTD/sodipodi-0.dtd"
   xmlns:inkscape="http://www.inkscape.org/namespaces/inkscape"
   width="157.30894mm"
   height="167.81317mm"
   viewBox="0 0 157.30894 167.81317"
   version="1.1"
   id="svg8"
   inkscape:version="1.0 (1.0+r73+1)"
   sodipodi:docname="choco-letters4noel.svg">
  <defs
     id="defs2">
    <rect
       id="rect1122"
       height="45.051403"
       width="124.52825"
       y="58.531717"
       x="22.519912" />
    <rect
       x="15.926999"
       y="57.718492"
       width="22.003404"
       height="32.818618"
       id="rect1533" />
    <rect
       id="rect2144"
       height="32.546555"
       width="117.41058"
       y="198.80934"
       x="6.6101193" />
    <rect
       x="32.267178"
       y="51.248474"
       width="73.91227"
       height="53.847942"
       id="rect857" />
    <rect
       id="rect865"
       height="53.847942"
       width="73.91227"
       y="51.248474"
       x="32.267178" />
    <rect
       id="rect882"
       height="53.847942"
       width="73.91227"
       y="51.248474"
       x="32.267178" />
    <rect
       x="32.267178"
       y="51.248474"
       width="73.91227"
       height="53.847942"
       id="rect888" />
    <rect
       x="32.267178"
       y="51.248474"
       width="73.91227"
       height="53.847942"
       id="rect903" />
    <rect
       id="rect909"
       height="53.847942"
       width="73.91227"
       y="51.248474"
       x="32.267178" />
    <rect
       id="rect924"
       height="53.847942"
       width="73.91227"
       y="51.248474"
       x="32.267178" />
    <rect
       x="32.267178"
       y="51.248474"
       width="73.91227"
       height="53.847942"
       id="rect930" />
    <rect
       x="32.267178"
       y="51.248474"
       width="73.91227"
       height="53.847942"
       id="rect945" />
    <rect
       id="rect951"
       height="53.847942"
       width="73.91227"
       y="51.248474"
       x="32.267178" />
    <rect
       id="rect966"
       height="53.847942"
       width="73.91227"
       y="51.248474"
       x="32.267178" />
    <rect
       x="32.267178"
       y="51.248474"
       width="73.91227"
       height="53.847942"
       id="rect972" />
    <rect
       id="rect1863"
       height="53.847942"
       width="73.91227"
       y="51.248474"
       x="32.267178" />
    <rect
       x="32.267178"
       y="51.248474"
       width="73.91227"
       height="53.847942"
       id="rect1904" />
    <rect
       id="rect1912"
       height="53.847942"
       width="73.91227"
       y="51.248474"
       x="32.267178" />
    <rect
       id="rect1929"
       height="53.847942"
       width="73.91227"
       y="51.248474"
       x="32.267178" />
    <rect
       x="32.267178"
       y="51.248474"
       width="73.91227"
       height="53.847942"
       id="rect1935" />
    <rect
       x="32.267178"
       y="51.248474"
       width="73.91227"
       height="53.847942"
       id="rect1952" />
    <rect
       id="rect1958"
       height="53.847942"
       width="73.91227"
       y="51.248474"
       x="32.267178" />
    <rect
       id="rect1975"
       height="53.847942"
       width="73.91227"
       y="51.248474"
       x="32.267178" />
    <rect
       x="32.267178"
       y="51.248474"
       width="73.91227"
       height="53.847942"
       id="rect1981" />
    <rect
       id="rect2005"
       height="53.847942"
       width="73.91227"
       y="51.248474"
       x="32.267178" />
    <rect
       x="32.267178"
       y="51.248474"
       width="73.91227"
       height="53.847942"
       id="rect2011" />
    <rect
       x="32.267178"
       y="51.248474"
       width="73.91227"
       height="53.847942"
       id="rect2028" />
    <rect
       id="rect2034"
       height="53.847942"
       width="73.91227"
       y="51.248474"
       x="32.267178" />
    <rect
       x="32.267178"
       y="51.248474"
       width="73.91227"
       height="53.847942"
       id="rect2067" />
    <rect
       id="rect2073"
       height="53.847942"
       width="73.91227"
       y="51.248474"
       x="32.267178" />
    <rect
       id="rect2090"
       height="53.847942"
       width="73.91227"
       y="51.248474"
       x="32.267178" />
    <rect
       x="32.267178"
       y="51.248474"
       width="73.91227"
       height="53.847942"
       id="rect2096" />
    <rect
       x="32.267178"
       y="51.248474"
       width="73.91227"
       height="53.847942"
       id="rect2129" />
    <rect
       id="rect2135"
       height="53.847942"
       width="73.91227"
       y="51.248474"
       x="32.267178" />
  </defs>
  <sodipodi:namedview
     id="base"
     pagecolor="#ffffff"
     bordercolor="#666666"
     borderopacity="1.0"
     inkscape:pageopacity="0.0"
     inkscape:pageshadow="2"
     inkscape:zoom="2.2497718"
     inkscape:cx="134.44024"
     inkscape:cy="207.92765"
     inkscape:document-units="mm"
     inkscape:current-layer="layer1"
     inkscape:document-rotation="0"
     showgrid="false"
     inkscape:window-width="1370"
     inkscape:window-height="836"
     inkscape:window-x="70"
     inkscape:window-y="27"
     inkscape:window-maximized="1"
     fit-margin-top="0"
     fit-margin-left="0"
     fit-margin-right="0"
     fit-margin-bottom="0" />
  <metadata
     id="metadata5">
    <rdf:RDF>
      <cc:Work
         rdf:about="">
        <dc:format>image/svg+xml</dc:format>
        <dc:type
           rdf:resource="http://purl.org/dc/dcmitype/StillImage" />
        <dc:title />
      </cc:Work>
    </rdf:RDF>
  </metadata>
  <g
     inkscape:label="Layer 1"
     inkscape:groupmode="layer"
     id="layer1"
     transform="translate(-9.3726973,-20.331381)">
    <path
       transform="matrix(0.26458333,0,0,0.26458333,9.3726973,20.331381)"
       d="M 0.09765625,122.46094 V 289.83008 H 114.55273 V 122.46094 h -0.53125 z"
       style="color:#000000;font-style:normal;font-variant:normal;font-weight:normal;font-stretch:normal;font-size:medium;line-height:normal;font-family:sans-serif;font-variant-ligatures:normal;font-variant-position:normal;font-variant-caps:normal;font-variant-numeric:normal;font-variant-alternates:normal;font-variant-east-asian:normal;font-feature-settings:normal;font-variation-settings:normal;text-indent:0;text-align:start;text-decoration:none;text-decoration-line:none;text-decoration-style:solid;text-decoration-color:#000000;letter-spacing:normal;word-spacing:normal;text-transform:none;writing-mode:lr-tb;direction:ltr;text-orientation:mixed;dominant-baseline:auto;baseline-shift:baseline;text-anchor:start;white-space:normal;shape-padding:0;shape-margin:0;inline-size:0;clip-rule:nonzero;display:inline;overflow:visible;visibility:visible;opacity:1;isolation:auto;mix-blend-mode:normal;color-interpolation:sRGB;color-interpolation-filters:linearRGB;solid-color:#000000;solid-opacity:1;vector-effect:none;fill:none;fill-opacity:1;fill-rule:nonzero;stroke:#ff0000;stroke-width:0.377953;stroke-linecap:butt;stroke-linejoin:miter;stroke-miterlimit:4;stroke-dasharray:none;stroke-dashoffset:0;stroke-opacity:1;color-rendering:auto;image-rendering:auto;shape-rendering:auto;text-rendering:auto;enable-background:accumulate;stop-color:#000000;stop-opacity:1"
       id="path3026" />
    <path
       id="path2348"
       transform="rotate(90)"
       d="m 52.732422,-71.431641 v 0.140625 30.142578 h 44.283203 v -30.283203 z"
       style="color:#000000;font-style:normal;font-variant:normal;font-weight:normal;font-stretch:normal;font-size:medium;line-height:normal;font-family:sans-serif;font-variant-ligatures:normal;font-variant-position:normal;font-variant-caps:normal;font-variant-numeric:normal;font-variant-alternates:normal;font-variant-east-asian:normal;font-feature-settings:normal;font-variation-settings:normal;text-indent:0;text-align:start;text-decoration:none;text-decoration-line:none;text-decoration-style:solid;text-decoration-color:#000000;letter-spacing:normal;word-spacing:normal;text-transform:none;writing-mode:lr-tb;direction:ltr;text-orientation:mixed;dominant-baseline:auto;baseline-shift:baseline;text-anchor:start;white-space:normal;shape-padding:0;shape-margin:0;inline-size:0;clip-rule:nonzero;display:inline;overflow:visible;visibility:visible;opacity:1;isolation:auto;mix-blend-mode:normal;color-interpolation:sRGB;color-interpolation-filters:linearRGB;solid-color:#000000;solid-opacity:1;vector-effect:none;fill:none;fill-opacity:1;fill-rule:nonzero;stroke:#ff0000;stroke-width:0.1;stroke-linecap:butt;stroke-linejoin:miter;stroke-miterlimit:4;stroke-dasharray:none;stroke-dashoffset:0;stroke-opacity:1;color-rendering:auto;image-rendering:auto;shape-rendering:auto;text-rendering:auto;enable-background:accumulate;stop-color:#000000;stop-opacity:1" />
    <path
       transform="matrix(0.26458333,0,0,0.26458333,9.3726973,20.331381)"
       d="M 240.09766,122.46094 V 289.83008 H 354.55273 V 122.46094 h -0.53125 z"
       style="color:#000000;font-style:normal;font-variant:normal;font-weight:normal;font-stretch:normal;font-size:medium;line-height:normal;font-family:sans-serif;font-variant-ligatures:normal;font-variant-position:normal;font-variant-caps:normal;font-variant-numeric:normal;font-variant-alternates:normal;font-variant-east-asian:normal;font-feature-settings:normal;font-variation-settings:normal;text-indent:0;text-align:start;text-decoration:none;text-decoration-line:none;text-decoration-style:solid;text-decoration-color:#000000;letter-spacing:normal;word-spacing:normal;text-transform:none;writing-mode:lr-tb;direction:ltr;text-orientation:mixed;dominant-baseline:auto;baseline-shift:baseline;text-anchor:start;white-space:normal;shape-padding:0;shape-margin:0;inline-size:0;clip-rule:nonzero;display:inline;overflow:visible;visibility:visible;opacity:1;isolation:auto;mix-blend-mode:normal;color-interpolation:sRGB;color-interpolation-filters:linearRGB;solid-color:#000000;solid-opacity:1;vector-effect:none;fill:none;fill-opacity:1;fill-rule:nonzero;stroke:#ff0000;stroke-width:0.377953;stroke-linecap:butt;stroke-linejoin:miter;stroke-miterlimit:4;stroke-dasharray:none;stroke-dashoffset:0;stroke-opacity:1;color-rendering:auto;image-rendering:auto;shape-rendering:auto;text-rendering:auto;enable-background:accumulate;stop-color:#000000;stop-opacity:1"
       id="path3034" />
    <path
       id="path2332"
       transform="rotate(90)"
       d="m 52.732422,-134.93164 v 0.14062 30.14258 h 44.283203 v -30.2832 z"
       style="color:#000000;font-style:normal;font-variant:normal;font-weight:normal;font-stretch:normal;font-size:medium;line-height:normal;font-family:sans-serif;font-variant-ligatures:normal;font-variant-position:normal;font-variant-caps:normal;font-variant-numeric:normal;font-variant-alternates:normal;font-variant-east-asian:normal;font-feature-settings:normal;font-variation-settings:normal;text-indent:0;text-align:start;text-decoration:none;text-decoration-line:none;text-decoration-style:solid;text-decoration-color:#000000;letter-spacing:normal;word-spacing:normal;text-transform:none;writing-mode:lr-tb;direction:ltr;text-orientation:mixed;dominant-baseline:auto;baseline-shift:baseline;text-anchor:start;white-space:normal;shape-padding:0;shape-margin:0;inline-size:0;clip-rule:nonzero;display:inline;overflow:visible;visibility:visible;opacity:1;isolation:auto;mix-blend-mode:normal;color-interpolation:sRGB;color-interpolation-filters:linearRGB;solid-color:#000000;solid-opacity:1;vector-effect:none;fill:none;fill-opacity:1;fill-rule:nonzero;stroke:#ff0000;stroke-width:0.1;stroke-linecap:butt;stroke-linejoin:miter;stroke-miterlimit:4;stroke-dasharray:none;stroke-dashoffset:0;stroke-opacity:1;color-rendering:auto;image-rendering:auto;shape-rendering:auto;text-rendering:auto;enable-background:accumulate;stop-color:#000000;stop-opacity:1" />
    <g
       style="font-style:normal;font-weight:normal;font-size:10.5833px;line-height:1.25;font-family:sans-serif;letter-spacing:0px;word-spacing:0px;white-space:pre;shape-inside:url(#rect924);fill:none;fill-opacity:1;stroke:#ff0000;stroke-width:0.0283754;stroke-miterlimit:4;stroke-dasharray:none;stroke-opacity:1"
       id="text920"
       transform="matrix(3.5241843,0,0,3.5241843,-6.4805944,-161.9584)"
       aria-label="E">
      <path
         id="path2328"
         d="m 38.339844,62.226562 -5.353516,0.361329 v 0.03906 l 0.128906,8.759766 4.765625,-0.466797 -0.24414,-1.195313 -3.363281,-0.328125 0.341796,-1.830078 3.78711,-0.634765 0.111328,-0.8125 -3.882813,-0.38086 0.466797,-2.435547 3.634766,-0.152343 z m -0.05469,0.08984 0.31836,0.751953 -3.578125,0.152344 -0.496094,2.59375 3.888672,0.382813 -0.0918,0.660156 -3.783203,0.634766 -0.369141,1.980468 3.392578,0.332032 0.212891,1.039062 -4.580078,0.449219 -0.126953,-8.625 z"
         style="color:#000000;font-style:normal;font-variant:normal;font-weight:500;font-stretch:normal;font-size:25.4px;line-height:1.25;font-family:BLionTale;-inkscape-font-specification:'BLionTale, Medium';font-variant-ligatures:normal;font-variant-position:normal;font-variant-caps:normal;font-variant-numeric:normal;font-variant-alternates:normal;font-variant-east-asian:normal;font-feature-settings:normal;font-variation-settings:normal;text-indent:0;text-align:start;text-decoration:none;text-decoration-line:none;text-decoration-style:solid;text-decoration-color:#000000;letter-spacing:0px;word-spacing:0px;text-transform:none;writing-mode:lr-tb;direction:ltr;text-orientation:mixed;dominant-baseline:auto;baseline-shift:baseline;text-anchor:start;white-space:normal;shape-padding:0;shape-margin:0;inline-size:0;clip-rule:nonzero;display:inline;overflow:visible;visibility:visible;opacity:1;isolation:auto;mix-blend-mode:normal;color-interpolation:sRGB;color-interpolation-filters:linearRGB;solid-color:#000000;solid-opacity:1;vector-effect:none;fill:none;fill-opacity:1;fill-rule:nonzero;stroke:#ff0000;stroke-width:0.0283754;stroke-linecap:butt;stroke-linejoin:miter;stroke-miterlimit:4;stroke-dasharray:none;stroke-dashoffset:0;stroke-opacity:1;color-rendering:auto;image-rendering:auto;shape-rendering:auto;text-rendering:auto;enable-background:accumulate;stop-color:#000000;stop-opacity:1" />
    </g>
    <g
       aria-label="E"
       transform="matrix(3.5241843,0,0,3.5241843,-6.4805944,-161.9584)"
       id="text928"
       style="font-style:normal;font-weight:normal;font-size:10.5833px;line-height:1.25;font-family:sans-serif;letter-spacing:0px;word-spacing:0px;white-space:pre;shape-inside:url(#rect930);fill:none;fill-opacity:1;stroke:#ff0000;stroke-width:0.0283754;stroke-miterlimit:4;stroke-dasharray:none;stroke-dashoffset:0;stroke-opacity:1">
      <path
         id="path2420"
         d="m 38.291016,61.927734 -0.08594,0.0059 0.0059,0.08594 0.08398,-0.0059 z m -0.339844,0.02344 -0.08594,0.0059 0.0059,0.08398 0.08594,-0.0059 z m -0.339844,0.02344 -0.08594,0.0059 0.0059,0.08398 0.08594,-0.0059 z m -0.339844,0.02148 -0.08594,0.0059 0.0059,0.08594 0.08594,-0.0059 z m 1.203125,0.01758 -0.04883,0.07031 0.0293,0.02148 0.0332,0.0293 0.05469,-0.06641 -0.03711,-0.03125 z m -1.542968,0.0059 -0.08594,0.0059 0.0059,0.08594 0.08594,-0.0059 z m -0.339844,0.02344 -0.08594,0.0059 0.0059,0.08398 0.08594,-0.0059 z m -0.339844,0.02344 -0.08594,0.0039 0.0059,0.08594 0.08594,-0.0059 z m -0.339844,0.02148 -0.08594,0.0059 0.0059,0.08594 0.08594,-0.0059 z m -0.339843,0.02344 -0.08594,0.0059 0.0059,0.08398 0.08594,-0.0059 z m -0.339844,0.02344 -0.08398,0.0059 0.0039,0.08398 0.08594,-0.0059 z m -0.339844,0.02148 -0.08398,0.0059 0.0059,0.08594 0.08398,-0.0059 z m -0.339844,0.02344 -0.08398,0.0059 0.0059,0.08594 0.08398,-0.0059 z m -0.339843,0.02344 -0.08398,0.0059 0.0059,0.08398 0.08398,-0.0059 z m -0.339844,0.02344 -0.08398,0.0039 0.0059,0.08594 0.08398,-0.0059 z m -0.339844,0.02148 -0.08398,0.0059 0.0059,0.08594 0.08398,-0.0059 z m -0.339844,0.02344 -0.08398,0.0059 0.0059,0.08398 0.08398,-0.0059 z m 5.515625,0.0078 -0.07227,0.04492 0.03711,0.07227 0.07617,-0.03711 -0.03906,-0.07813 z m -5.855468,0.01563 -0.08398,0.0059 0.0059,0.08398 0.08398,-0.0059 z m -0.08398,0.257812 -0.08398,0.002 v 0.08398 h 0.08594 z m 6.076172,0.04883 -0.08203,0.02734 0.02734,0.08008 0.08008,-0.02539 z m -6.070312,0.291016 -0.08594,0.002 0.002,0.08398 h 0.08398 z m 6.173828,0.0332 -0.08008,0.02734 0.02734,0.08008 0.002,0.002 0.07812,-0.03125 z m 0.130859,0.306641 -0.07617,0.03906 c 0.01429,0.02662 0.03127,0.05358 0.04883,0.07813 l 0.06836,-0.05078 c -0.01546,-0.02161 -0.02846,-0.04303 -0.04102,-0.06641 z m -6.384766,0.002 v 0.08594 l 0.08594,-0.002 -0.002,-0.08398 z m 6.267579,0.121094 -0.08594,0.0039 0.0039,0.08398 0.08594,-0.0039 z m -0.339844,0.01367 -0.08594,0.0039 0.0039,0.08594 0.08398,-0.0039 z m -0.341797,0.01563 -0.08398,0.002 0.0039,0.08594 0.08398,-0.0039 z m -0.339844,0.01367 -0.08398,0.0039 0.002,0.08398 0.08594,-0.0039 z m -0.339844,0.01367 -0.08594,0.0039 0.0039,0.08398 0.08594,-0.002 z m -0.339843,0.01367 -0.08594,0.0039 0.0039,0.08594 0.08594,-0.0039 z m -0.339844,0.01563 -0.08594,0.0039 0.0039,0.08398 0.08398,-0.0039 z m -0.341797,0.01367 -0.08398,0.0039 0.0039,0.08398 0.08398,-0.002 z m -0.339844,0.01367 -0.08398,0.0039 0.0039,0.08594 0.08398,-0.0039 z m -0.339843,0.01563 -0.08398,0.002 0.002,0.08594 0.08594,-0.0039 z m -0.339844,0.01367 -0.08594,0.0039 0.0039,0.08398 0.08594,-0.0039 z m -2.775391,0.07617 -0.08594,0.002 0.002,0.08398 h 0.08594 z m 2.46875,0.05664 -0.01758,0.08398 0.08398,0.01563 0.01758,-0.08203 z m -2.464844,0.283203 -0.08398,0.002 V 64 h 0.08594 z m 2.400391,0.05273 -0.01758,0.08203 0.08398,0.01758 0.01563,-0.08398 z m -2.480469,0.289062 0.002,0.08594 0.08594,-0.002 -0.002,-0.08398 z m 2.416016,0.04492 -0.01758,0.08398 0.08398,0.01563 0.01563,-0.08398 z m -2.326172,0.294922 -0.08398,0.002 v 0.08398 l 0.08594,-0.002 z m 2.259766,0.03906 -0.01563,0.08398 0.08398,0.01563 0.01563,-0.08398 z m -2.253906,0.300781 -0.08594,0.002 0.002,0.08398 h 0.08594 z m 2.189453,0.0332 -0.01563,0.08398 0.08398,0.01563 0.01563,-0.08398 z m -2.269532,0.308594 0.002,0.08594 0.08398,-0.002 -0.002,-0.08398 z m 2.205079,0.02539 -0.01563,0.08398 0.08398,0.01563 0.01563,-0.08203 z m 0.146484,0.173828 -0.0059,0.08398 0.06641,0.0059 h 0.01758 l 0.0078,-0.08398 -0.01758,-0.002 z m 0.341797,0.0293 -0.0098,0.08398 0.08398,0.0098 0.0098,-0.08594 z m 0.33789,0.03516 -0.0078,0.08398 0.0098,0.002 0.07422,0.0078 0.0078,-0.08594 -0.07422,-0.0078 z m 0.337891,0.03711 -0.0078,0.08398 0.08398,0.0098 0.0098,-0.08398 z m -3.365234,0.03906 0.002,0.08594 0.08594,-0.002 -0.002,-0.08398 z m 3.705078,0 -0.0098,0.08398 0.08398,0.0098 0.0098,-0.08594 z m 0.33789,0.03516 -0.0098,0.08398 0.08594,0.0098 0.0078,-0.08398 z m 0.337891,0.0332 -0.0078,0.08594 0.08594,0.0059 0.0059,-0.08398 z m 0.337891,0.02734 -0.0039,0.08398 0.08398,0.0059 0.0059,-0.08398 z m 0.339843,0.01758 -0.0039,0.08594 0.04687,0.002 h 0.03906 l 0.002,-0.08398 -0.03711,-0.002 z m 0.337891,0.0078 v 0.08594 h 0.08594 v -0.08594 z m 0.349609,0.04492 -0.02734,0.08008 c 0.02256,0.0078 0.04459,0.01887 0.06445,0.0332 l 0.04883,-0.06836 c -0.02611,-0.01885 -0.0549,-0.03414 -0.08594,-0.04492 z m -5.654297,0.173828 -0.08594,0.002 0.002,0.08398 h 0.08398 z m 5.91211,0.08398 -0.07813,0.03516 c 0.0099,0.02109 0.01823,0.04699 0.02539,0.07422 l 0.08203,-0.02148 c -0.0072,-0.02746 -0.01506,-0.0576 -0.0293,-0.08789 z m -5.908203,0.255859 -0.08594,0.002 0.002,0.08594 0.08594,-0.002 z m 5.966797,0.09375 -0.08594,0.002 v 0.02539 l -0.002,0.05664 0.08398,0.0039 0.0039,-0.06055 z m -6.046875,0.248047 0.002,0.08594 0.08398,-0.002 v -0.08398 z m 5.929687,0.08594 -0.0039,0.02344 -0.01172,0.05859 0.08398,0.01563 0.01172,-0.06055 0.0039,-0.02539 z m -5.839844,0.253907 -0.08594,0.002 0.002,0.08398 h 0.08594 z m 5.771485,0.07617 -0.01953,0.08203 0.08203,0.01953 0.01953,-0.08203 z m -0.232422,0.09961 -0.08398,0.01367 0.01563,0.08398 0.08398,-0.01563 z m -0.335938,0.05469 -0.08398,0.01563 0.01563,0.08398 0.08398,-0.01563 z m -0.335937,0.05664 -0.08398,0.01367 0.01562,0.08398 0.08398,-0.01367 z m -4.861328,0.05273 -0.08594,0.002 0.002,0.08594 0.08398,-0.002 z m 4.527344,0.0039 -0.08398,0.01367 0.01367,0.08398 0.08398,-0.01367 z m -0.335938,0.05664 -0.08398,0.01367 0.01367,0.08398 0.08398,-0.01367 z m -0.335938,0.05664 -0.08398,0.01367 0.01367,0.08398 0.08398,-0.01367 z m -0.335937,0.05664 -0.08398,0.01367 0.01367,0.08398 0.08398,-0.01367 z m -0.335937,0.05664 -0.08398,0.01367 0.01367,0.08398 0.08398,-0.01367 z m -0.335938,0.05469 -0.08398,0.01563 0.01367,0.08398 0.08398,-0.01563 z m -0.416016,0.05469 0.0039,0.08398 h 0.0078 l 0.07422,0.0039 0.0078,-0.002 -0.01367,-0.08398 -0.06836,-0.002 z m -2.511718,0.002 v 0.08594 l 0.08594,-0.002 -0.002,-0.08398 z m 2.248046,0.05273 c -0.02689,0.01223 -0.05533,0.02667 -0.08203,0.04883 l 0.05273,0.06445 c 0.01698,-0.01409 0.03998,-0.02598 0.06445,-0.03711 z m -0.251953,0.261718 -0.01758,0.04297 -0.01563,0.03906 0.08008,0.0293 0.01367,-0.03711 0.01758,-0.03906 z M 32.849609,68 l -0.08594,0.002 0.002,0.08398 h 0.08398 z m 1.8125,0.314453 -0.01172,0.08398 0.08594,0.01172 0.01172,-0.08398 z m -1.808593,0.02539 -0.08398,0.002 v 0.08594 l 0.08594,-0.002 z m 1.773437,0.314453 v 0.0098 l -0.0059,0.07617 0.08398,0.0059 0.0059,-0.07422 v -0.0098 z m -1.853515,0.02734 0.002,0.08594 0.08398,-0.002 v -0.08398 z m 1.818359,0.308593 -0.002,0.01563 -0.01367,0.06641 0.08398,0.01758 0.01367,-0.06836 0.002,-0.01953 z m -1.728516,0.03125 -0.08398,0.002 v 0.08398 h 0.08594 z m 1.970703,0.09961 -0.01563,0.08203 0.08398,0.01758 0.01563,-0.08398 z m 0.333985,0.05664 -0.01172,0.08398 0.08398,0.01172 0.01172,-0.08398 z m 0.335937,0.04297 -0.0098,0.08398 0.08594,0.0078 0.0078,-0.08398 z m 0.337891,0.0332 -0.0078,0.08398 0.08594,0.0078 0.0078,-0.08398 z m 0.339844,0.0293 -0.0078,0.08398 0.08594,0.0078 0.0059,-0.08594 z m 0.33789,0.02734 -0.0059,0.08398 0.08398,0.0078 0.0078,-0.08594 z m 0.339844,0.02734 -0.0078,0.08594 0.08594,0.0078 0.0078,-0.08594 z m -3.990234,0.02344 -0.08594,0.002 0.002,0.08594 0.08398,-0.002 z m 4.330078,0.0098 -0.0078,0.08398 0.08398,0.0098 0.0098,-0.08398 z m 0.347656,0.04297 -0.02734,0.08008 0.05859,0.02148 0.01758,0.0078 0.03516,-0.07813 -0.02148,-0.0078 z m 0.302734,0.1875 -0.0625,0.06055 c 0.01788,0.0186 0.03412,0.03755 0.04687,0.05859 l 0.07422,-0.04492 c -0.01666,-0.02749 -0.03719,-0.05195 -0.05859,-0.07422 z m -5.060547,0.101563 v 0.08594 l 0.08594,-0.002 -0.002,-0.08398 z m 5.22461,0.216797 -0.08203,0.02344 c 0.0078,0.0258 0.01448,0.05175 0.01953,0.07813 l 0.08398,-0.01563 c -0.0056,-0.02936 -0.01288,-0.05741 -0.02148,-0.08594 z m -5.134766,0.123047 -0.08594,0.002 0.002,0.08398 h 0.08398 z m 5.19336,0.21875 -0.08398,0.0098 0.0059,0.04883 0.002,0.03516 0.08594,-0.0078 -0.0039,-0.03711 z m -5.189454,0.121093 -0.08398,0.002 v 0.08594 l 0.08594,-0.002 z m 5.222657,0.21875 -0.08594,0.0098 0.01172,0.08398 0.08398,-0.0098 z m -5.302735,0.123047 0.002,0.08594 0.08398,-0.002 v -0.08398 z m 5.361328,0.203125 -0.08008,0.02539 0.01563,0.05273 0.01367,0.0293 0.07813,-0.03125 -0.0098,-0.02734 z m -5.271484,0.136719 -0.08398,0.002 v 0.08398 h 0.08594 z m 5.205078,0.05078 -0.08594,0.0078 0.0078,0.08594 0.08594,-0.0098 z m -0.339844,0.0332 -0.08398,0.0078 0.0078,0.08594 0.08398,-0.0098 z m -0.33789,0.0332 -0.08594,0.0078 0.0078,0.08594 0.08594,-0.0098 z m -0.339844,0.0332 -0.08398,0.0078 0.0078,0.08594 0.08398,-0.0098 z m -0.33789,0.0332 -0.08594,0.0078 0.0078,0.08594 0.08594,-0.0098 z m -0.339844,0.0332 -0.08398,0.0078 0.0078,0.08594 0.08398,-0.0078 z m -0.337891,0.0332 -0.08594,0.0078 0.0078,0.08594 0.08594,-0.0078 z m -0.339844,0.0332 -0.08398,0.0078 0.0078,0.08594 0.08398,-0.0078 z m -0.33789,0.0332 -0.08594,0.0078 0.0078,0.08594 0.08594,-0.0078 z m -2.488281,0.02344 -0.08594,0.002 0.002,0.08398 h 0.08398 z m 2.148437,0.0098 -0.08398,0.0078 0.0078,0.08594 0.08398,-0.0078 z m -0.337891,0.0332 -0.08594,0.0098 0.0078,0.08398 0.08594,-0.0078 z m -0.339843,0.0332 -0.08398,0.0098 0.0078,0.08398 0.08398,-0.0078 z m -0.337891,0.0332 -0.08594,0.0098 0.0078,0.08398 0.08594,-0.0078 z m -0.339844,0.0332 -0.08398,0.0098 0.0078,0.08398 0.08398,-0.0078 z m -0.339844,0.0332 -0.08398,0.0098 0.0078,0.08398 0.08594,-0.0078 z m -0.33789,0.0332 -0.08398,0.0098 0.0078,0.08398 0.08398,-0.0078 z"
         style="color:#000000;font-style:normal;font-variant:normal;font-weight:500;font-stretch:normal;font-size:25.4px;line-height:1.25;font-family:BLionTale;-inkscape-font-specification:'BLionTale, Medium';font-variant-ligatures:normal;font-variant-position:normal;font-variant-caps:normal;font-variant-numeric:normal;font-variant-alternates:normal;font-variant-east-asian:normal;font-feature-settings:normal;font-variation-settings:normal;text-indent:0;text-align:start;text-decoration:none;text-decoration-line:none;text-decoration-style:solid;text-decoration-color:#000000;letter-spacing:0px;word-spacing:0px;text-transform:none;writing-mode:lr-tb;direction:ltr;text-orientation:mixed;dominant-baseline:auto;baseline-shift:baseline;text-anchor:start;white-space:normal;shape-padding:0;shape-margin:0;inline-size:0;clip-rule:nonzero;display:inline;overflow:visible;visibility:visible;opacity:1;isolation:auto;mix-blend-mode:normal;color-interpolation:sRGB;color-interpolation-filters:linearRGB;solid-color:#000000;solid-opacity:1;vector-effect:none;fill:none;fill-opacity:1;fill-rule:nonzero;stroke:#ff0000;stroke-width:0.0283754;stroke-linecap:butt;stroke-linejoin:miter;stroke-miterlimit:4;stroke-dasharray:none;stroke-dashoffset:0;stroke-opacity:1;color-rendering:auto;image-rendering:auto;shape-rendering:auto;text-rendering:auto;enable-background:accumulate;stop-color:#000000;stop-opacity:1" />
    </g>
    <path
       id="path2324"
       transform="rotate(90)"
       d="m 52.732422,-166.68164 v 0.14062 30.14258 h 44.283203 v -30.2832 z"
       style="color:#000000;font-style:normal;font-variant:normal;font-weight:normal;font-stretch:normal;font-size:medium;line-height:normal;font-family:sans-serif;font-variant-ligatures:normal;font-variant-position:normal;font-variant-caps:normal;font-variant-numeric:normal;font-variant-alternates:normal;font-variant-east-asian:normal;font-feature-settings:normal;font-variation-settings:normal;text-indent:0;text-align:start;text-decoration:none;text-decoration-line:none;text-decoration-style:solid;text-decoration-color:#000000;letter-spacing:normal;word-spacing:normal;text-transform:none;writing-mode:lr-tb;direction:ltr;text-orientation:mixed;dominant-baseline:auto;baseline-shift:baseline;text-anchor:start;white-space:normal;shape-padding:0;shape-margin:0;inline-size:0;clip-rule:nonzero;display:inline;overflow:visible;visibility:visible;opacity:1;isolation:auto;mix-blend-mode:normal;color-interpolation:sRGB;color-interpolation-filters:linearRGB;solid-color:#000000;solid-opacity:1;vector-effect:none;fill:none;fill-opacity:1;fill-rule:nonzero;stroke:#ff0000;stroke-width:0.1;stroke-linecap:butt;stroke-linejoin:miter;stroke-miterlimit:4;stroke-dasharray:none;stroke-dashoffset:0;stroke-opacity:1;color-rendering:auto;image-rendering:auto;shape-rendering:auto;text-rendering:auto;enable-background:accumulate;stop-color:#000000;stop-opacity:1" />
    <g
       style="font-style:normal;font-weight:normal;font-size:10.5833px;line-height:1.25;font-family:sans-serif;letter-spacing:0px;word-spacing:0px;white-space:pre;shape-inside:url(#rect945);fill:none;fill-opacity:1;stroke:#ff0000;stroke-width:0.0283754;stroke-miterlimit:4;stroke-dasharray:none;stroke-opacity:1"
       id="text941"
       transform="matrix(3.5241843,0,0,3.5241843,25.269405,-161.9584)"
       aria-label="U">
      <path
         id="path2320"
         d="m 32.935547,62.800781 v 0.05469 l 0.05078,3.814453 0.587891,3.474609 1.777343,1.363281 1.748047,0.103516 1.302735,-0.443359 0.308594,-2.033203 0.228515,-2.621094 -0.128906,-3.388672 -1.773438,-0.322266 0.800782,3.511719 -0.05078,2.632813 -0.320312,1.554687 -1.650391,-0.294922 -1.095703,-0.896484 -0.480469,-2.701172 -0.410156,-3.583984 z m 0.08594,0.109375 0.730469,0.183594 0.404297,3.527344 0.484375,2.734375 1.138672,0.93164 1.753906,0.314453 0.339844,-1.644531 0.05078,-2.65039 -0.773437,-3.396485 1.578125,0.28711 0.125,3.314453 -0.226563,2.613281 -0.300781,1.978516 -1.238281,0.421875 -1.705079,-0.101563 -1.730468,-1.328125 -0.580078,-3.433594 z"
         style="color:#000000;font-style:normal;font-variant:normal;font-weight:500;font-stretch:normal;font-size:25.4px;line-height:1.25;font-family:BLionTale;-inkscape-font-specification:'BLionTale, Medium';font-variant-ligatures:normal;font-variant-position:normal;font-variant-caps:normal;font-variant-numeric:normal;font-variant-alternates:normal;font-variant-east-asian:normal;font-feature-settings:normal;font-variation-settings:normal;text-indent:0;text-align:start;text-decoration:none;text-decoration-line:none;text-decoration-style:solid;text-decoration-color:#000000;letter-spacing:0px;word-spacing:0px;text-transform:none;writing-mode:lr-tb;direction:ltr;text-orientation:mixed;dominant-baseline:auto;baseline-shift:baseline;text-anchor:start;white-space:normal;shape-padding:0;shape-margin:0;inline-size:0;clip-rule:nonzero;display:inline;overflow:visible;visibility:visible;opacity:1;isolation:auto;mix-blend-mode:normal;color-interpolation:sRGB;color-interpolation-filters:linearRGB;solid-color:#000000;solid-opacity:1;vector-effect:none;fill:none;fill-opacity:1;fill-rule:nonzero;stroke:#ff0000;stroke-width:0.0283754;stroke-linecap:butt;stroke-linejoin:miter;stroke-miterlimit:4;stroke-dasharray:none;stroke-dashoffset:0;stroke-opacity:1;color-rendering:auto;image-rendering:auto;shape-rendering:auto;text-rendering:auto;enable-background:accumulate;stop-color:#000000;stop-opacity:1" />
    </g>
    <g
       aria-label="U"
       transform="matrix(3.5241843,0,0,3.5241843,25.269405,-161.9584)"
       id="text949"
       style="font-style:normal;font-weight:normal;font-size:10.5833px;line-height:1.25;font-family:sans-serif;letter-spacing:0px;word-spacing:0px;white-space:pre;shape-inside:url(#rect951);fill:none;fill-opacity:1;stroke:#ff0000;stroke-width:0.0283754;stroke-miterlimit:4;stroke-dasharray:none;stroke-opacity:1">
      <path
         id="path2416"
         d="m 32.984375,62.507812 -0.02148,0.002 0.0039,0.08398 h 0.01758 l 0.0625,0.002 0.0039,-0.08398 z m -0.09375,0.0078 -0.04297,0.02148 -0.03516,0.02148 0.04492,0.07227 0.03125,-0.01758 0.04102,-0.01953 z m 4.347656,0.01172 v 0.08398 h 0.01367 l 0.06836,0.0059 0.0059,-0.08398 -0.07031,-0.0059 z m -0.347656,0.04297 c -0.03002,0.0086 -0.0589,0.02082 -0.08594,0.0332 l 0.03516,0.07813 c 0.02451,-0.01123 0.0497,-0.02224 0.07422,-0.0293 z m -3.496094,0.01758 -0.02734,0.08203 0.08008,0.02734 0.02734,-0.08203 z m 4.273438,0.0059 -0.01953,0.08398 0.01367,0.002 0.06836,0.01758 0.02148,-0.08203 -0.07031,-0.01758 z m 0.412109,0.107422 -0.01953,0.08203 0.02148,0.0059 0.0625,0.01367 0.01758,-0.08398 -0.06055,-0.01367 z m -4.285156,0.01953 -0.02148,0.08398 0.05859,0.01367 0.02734,0.0059 0.01563,-0.08398 -0.02539,-0.0039 z m 4.689453,0.02148 0.0098,0.08594 c 0.02426,-0.0028 0.05119,-0.0038 0.07813,-0.002 l 0.0059,-0.08398 c -0.02957,-0.002 -0.06163,-0.0038 -0.09375,0 z M 32.625,62.873047 c -0.0048,0.02891 -0.0097,0.05969 -0.0098,0.0918 h 0.08594 c 1.3e-5,-0.02467 0.0033,-0.05112 0.0078,-0.07813 z m 6.287109,0.002 -0.05273,0.06641 c 0.01855,0.01449 0.03714,0.03376 0.05664,0.05469 l 0.0625,-0.05664 c -0.01903,-0.02043 -0.04022,-0.04401 -0.06641,-0.06445 z m -2.072265,0.04492 -0.08203,0.01758 0.01758,0.08398 0.08203,-0.01758 z m -2.71875,0.02148 -0.08398,0.0098 0.0098,0.08398 0.08594,-0.0098 z m 5.021484,0.31836 -0.08398,0.01563 0.01563,0.07813 v 0.002 l 0.08594,-0.0078 -0.002,-0.0059 z m -6.421875,0.03906 -0.08398,0.0098 0.002,0.01367 0.0078,0.07031 0.08594,-0.0098 -0.0098,-0.07031 z m 4.212891,0.03711 -0.08398,0.01758 0.0039,0.01563 0.01563,0.06836 0.08398,-0.01953 -0.01758,-0.06836 z m -2.761719,0.02734 -0.08398,0.0098 0.0098,0.08398 0.08398,-0.0098 z m 4.884766,0.316407 -0.0039,0.01562 0.0059,0.08008 0.08398,-0.0039 -0.0039,-0.07031 0.002,-0.0039 z m -6.388672,0.04492 -0.002,0.04492 -0.0039,0.03711 0.08398,0.01172 0.0039,-0.04102 0.0039,-0.04687 z m 4.363281,0.02344 -0.08203,0.01953 0.01953,0.08398 0.08203,-0.01953 z m -2.810547,0.03906 -0.08594,0.0078 0.0098,0.08594 0.08594,-0.0098 z m 4.941406,0.324219 -0.08594,0.0039 0.0059,0.08594 0.08398,-0.0039 z m -6.513671,0.03906 v 0.0293 l -0.002,0.05664 h 0.08594 v -0.05469 -0.0293 z m 4.482421,0.01172 -0.08203,0.01953 0.01953,0.08398 0.08203,-0.01953 z m -2.863281,0.04687 -0.08594,0.0098 0.0098,0.08398 0.08398,-0.0078 z m 4.914063,0.328125 -0.08594,0.0039 0.0039,0.08398 0.08594,-0.002 z m -6.451172,0.03906 -0.08398,0.002 v 0.08398 h 0.08398 z m 4.5,0 -0.08203,0.01953 0.01953,0.08398 0.08203,-0.02148 z m -2.917969,0.05664 -0.08398,0.0098 0.0098,0.08398 0.08398,-0.0098 z m 4.884766,0.330079 -0.08594,0.002 0.002,0.08594 0.08594,-0.002 z m -1.871094,0.0293 -0.08203,0.01758 0.0098,0.04883 0.0078,0.03516 0.08398,-0.01758 -0.0078,-0.03711 z m -4.591797,0.0098 -0.08594,0.002 0.002,0.08398 h 0.08398 z m 1.625,0.05273 -0.08398,0.0098 0.0098,0.08594 0.08398,-0.0098 z m 4.847656,0.333984 -0.08594,0.002 0.002,0.05664 v 0.02734 h 0.08594 l -0.002,-0.0293 z m -1.791015,0.02148 -0.08398,0.01563 0.01563,0.08398 0.08398,-0.01758 z m -4.673828,0.01758 -0.08398,0.002 0.002,0.06445 v 0.02148 l 0.08594,-0.0039 -0.002,-0.01953 z m 1.666015,0.05078 -0.08398,0.0098 0.0039,0.03906 0.0059,0.04492 0.08398,-0.0098 -0.0059,-0.04492 z m 4.71875,0.335937 v 0.08594 h 0.08398 v -0.08594 z m -1.634765,0.01367 -0.08398,0.01563 0.01367,0.08398 0.08398,-0.01563 z m -4.734376,0.02344 -0.08398,0.0039 0.0039,0.08594 0.08594,-0.0039 z m 1.703126,0.04883 -0.08398,0.0098 0.0098,0.08594 0.08398,-0.01172 z m 4.664062,0.339843 -0.002,0.08594 h 0.08594 v -0.08398 z m -1.568359,0.01172 -0.08398,0.0098 0.0098,0.08398 0.08594,-0.0098 z m -4.773438,0.02344 -0.08594,0.0059 0.0059,0.08594 0.08398,-0.0059 z m 1.734375,0.04687 -0.08594,0.01172 0.01172,0.08398 0.08594,-0.01172 z m 4.597656,0.34375 -0.002,0.08398 0.08594,0.002 0.002,-0.08398 z m -1.511718,0.0098 -0.08594,0.0078 0.0078,0.07227 v 0.01172 l 0.08398,-0.0059 v -0.01367 z m -4.789063,0.02344 -0.08594,0.0078 0.0078,0.08398 0.08398,-0.0059 z m 1.761719,0.04297 -0.08398,0.01367 0.01367,0.08398 0.08398,-0.01367 z m 4.52539,0.347656 -0.0039,0.08594 0.08594,0.002 0.002,-0.08398 z m -1.472656,0.01367 -0.08398,0.002 0.002,0.08594 0.08398,-0.002 z m -4.77539,0.01953 -0.08398,0.0078 v 0.002 l 0.0098,0.08398 0.08398,-0.0098 z m 1.792968,0.03125 -0.08203,0.02734 0.01563,0.04687 0.0098,0.0332 0.08203,-0.02344 -0.0098,-0.03516 z m 4.433594,0.359375 -0.002,0.0293 -0.0039,0.05664 0.08398,0.0059 0.0039,-0.05664 0.002,-0.0293 z m -1.535156,0.01563 -0.002,0.08398 0.08594,0.0039 0.002,-0.08594 z m -4.640625,0.01367 -0.08398,0.01172 0.0098,0.08398 0.08594,-0.0098 z m 1.841797,0.0332 -0.08594,0.01172 0.01172,0.08398 0.08594,-0.01172 z m 4.302734,0.361328 -0.0078,0.08594 0.08594,0.0059 0.0078,-0.08398 z m -1.527344,0.01367 v 0.01367 l -0.0078,0.07031 0.08398,0.0098 0.0078,-0.07031 0.002,-0.01563 z m -4.558593,0.01367 -0.08398,0.01172 0.01367,0.08398 0.08398,-0.01172 z M 34.794922,68 l -0.08398,0.0098 0.002,0.01563 0.0059,0.06836 0.08594,-0.0098 -0.0078,-0.06641 z m 4.214844,0.361328 -0.0078,0.08398 0.08398,0.0098 0.0098,-0.08594 z m -1.515625,0.01563 -0.002,0.03125 -0.002,0.05273 0.08398,0.0059 0.0039,-0.05469 v -0.03125 z m -4.460938,0.0059 -0.08398,0.01563 0.0059,0.03125 0.01172,0.05273 0.08203,-0.01563 -0.0098,-0.05273 z m 1.808594,0.03906 -0.08398,0.01172 0.0059,0.04102 0.0078,0.04492 0.08398,-0.01563 -0.0078,-0.04297 z m 4.121094,0.361328 -0.0098,0.08398 0.08398,0.0098 0.01172,-0.08398 z m -5.847657,0.01563 -0.08203,0.01758 0.01758,0.08398 0.08398,-0.01758 z m 4.351563,0.002 -0.0078,0.08398 0.08594,0.0078 0.0059,-0.08398 z m -2.537109,0.0293 -0.08203,0.02539 0.01758,0.05273 0.0098,0.03125 0.08008,-0.0293 -0.0098,-0.03125 z m 0.171874,0.373047 -0.06836,0.04883 0.0332,0.05078 0.01758,0.02148 0.06641,-0.05273 -0.01563,-0.01953 z m 3.806641,0.002 -0.0098,0.07422 -0.002,0.0059 0.08203,0.01953 0.002,-0.0098 0.01172,-0.07813 z m -5.710937,0.01563 -0.08398,0.01172 0.0098,0.07031 0.002,0.01367 0.08398,-0.01172 -0.002,-0.01367 z m 4.224609,0 -0.01172,0.08398 0.08398,0.01367 0.01172,-0.08594 z m -2.042969,0.292969 -0.05664,0.0625 c 0.02197,0.0201 0.04522,0.03869 0.06836,0.05664 l 0.05078,-0.06836 c -0.0217,-0.01683 -0.0426,-0.03257 -0.0625,-0.05078 z m 3.449219,0.107422 -0.0078,0.05078 -0.0039,0.03516 0.08398,0.0098 0.0039,-0.0332 0.0078,-0.04883 z m -5.570313,0.01953 -0.08398,0.01367 0.002,0.01172 0.01172,0.07227 0.08398,-0.01367 -0.01172,-0.07227 z m 4.097657,0 -0.0098,0.05859 -0.0039,0.02344 0.08203,0.01758 0.0059,-0.02539 0.0098,-0.06055 z M 35.71875,69.75 l -0.04102,0.07422 0.06445,0.03516 0.01367,0.0078 0.03711,-0.07813 -0.01172,-0.0039 z m 0.382812,0.171875 -0.0293,0.08008 0.06641,0.02344 0.01563,0.0039 0.02539,-0.08008 -0.01563,-0.0059 z m 0.404297,0.115234 -0.01953,0.08398 0.07031,0.01563 0.01367,0.002 0.01563,-0.08203 -0.01172,-0.0039 z m -3.154297,0.0098 -0.08008,0.02734 0.02148,0.06055 0.0078,0.02344 0.08008,-0.0332 -0.0078,-0.01953 z m 5.431641,0 -0.002,0.02539 -0.0059,0.06055 0.08398,0.0059 0.0059,-0.05859 0.002,-0.02539 z m -1.515625,0.0059 -0.01953,0.08398 0.08203,0.01953 0.01953,-0.08203 z m -0.347656,0.0625 -0.01367,0.08398 0.07813,0.01172 0.0078,0.002 0.01172,-0.08398 -0.0078,-0.002 z m -3.376953,0.292969 -0.06445,0.05469 0.02539,0.0293 0.0332,0.03516 0.06055,-0.05859 -0.03125,-0.0332 z m 5.201172,0.06055 -0.01172,0.08594 0.08398,0.0098 0.01172,-0.08398 z m -4.88086,0.181641 -0.0332,0.07813 0.03516,0.01563 0.03125,0.02148 0.04883,-0.07031 -0.03711,-0.02539 z m 4.806641,0.232421 -0.02344,0.08203 0.08398,0.02148 0.02148,-0.08203 z m -4.449219,0.01953 -0.05469,0.06641 0.0625,0.04883 0.0039,0.0039 0.05469,-0.06641 -0.0039,-0.0039 z m 0.328125,0.269531 -0.05273,0.06641 0.06445,0.05273 0.05469,-0.06445 z m 3.976563,0.09961 -0.02734,0.04883 -0.0078,0.0039 0.04687,0.07031 0.02344,-0.01563 0.03906,-0.06641 z m -3.642579,0.160157 -0.05078,0.06836 0.01367,0.0098 0.05859,0.03906 0.04687,-0.07031 -0.05664,-0.03906 z m 3.316407,0.05469 -0.07813,0.03516 0.03711,0.07813 0.07617,-0.03516 z m -0.392578,0.154297 -0.01758,0.0059 -0.06055,0.01758 0.02344,0.08203 0.0625,-0.01758 0.01953,-0.0078 z m -2.566407,0.0039 -0.03516,0.07813 0.04102,0.01953 0.03906,0.01562 0.03125,-0.07812 -0.03516,-0.01563 z m 2.160157,0.0957 -0.08203,0.01563 0.01172,0.08398 h 0.002 l 0.08398,-0.01563 z m -1.767579,0.0293 -0.0098,0.08398 0.07227,0.0098 h 0.01367 l 0.0059,-0.08398 -0.01172,-0.002 z m 0.423829,0.0039 -0.0098,0.08398 0.08398,0.0098 0.0098,-0.08398 z m 0.927734,0.02148 -0.08594,0.0059 0.0059,0.08594 0.08398,-0.0059 z m -0.505859,0.01172 -0.0039,0.08398 0.03125,0.002 h 0.05469 l 0.002,-0.08398 -0.05469,-0.002 z"
         style="color:#000000;font-style:normal;font-variant:normal;font-weight:500;font-stretch:normal;font-size:25.4px;line-height:1.25;font-family:BLionTale;-inkscape-font-specification:'BLionTale, Medium';font-variant-ligatures:normal;font-variant-position:normal;font-variant-caps:normal;font-variant-numeric:normal;font-variant-alternates:normal;font-variant-east-asian:normal;font-feature-settings:normal;font-variation-settings:normal;text-indent:0;text-align:start;text-decoration:none;text-decoration-line:none;text-decoration-style:solid;text-decoration-color:#000000;letter-spacing:0px;word-spacing:0px;text-transform:none;writing-mode:lr-tb;direction:ltr;text-orientation:mixed;dominant-baseline:auto;baseline-shift:baseline;text-anchor:start;white-space:normal;shape-padding:0;shape-margin:0;inline-size:0;clip-rule:nonzero;display:inline;overflow:visible;visibility:visible;opacity:1;isolation:auto;mix-blend-mode:normal;color-interpolation:sRGB;color-interpolation-filters:linearRGB;solid-color:#000000;solid-opacity:1;vector-effect:none;fill:none;fill-opacity:1;fill-rule:nonzero;stroke:#ff0000;stroke-width:0.0283754;stroke-linecap:butt;stroke-linejoin:miter;stroke-miterlimit:4;stroke-dasharray:none;stroke-dashoffset:0;stroke-opacity:1;color-rendering:auto;image-rendering:auto;shape-rendering:auto;text-rendering:auto;enable-background:accumulate;stop-color:#000000;stop-opacity:1" />
    </g>
    <g
       style="font-style:normal;font-weight:normal;font-size:10.5833px;line-height:1.25;font-family:sans-serif;letter-spacing:0px;word-spacing:0px;white-space:pre;shape-inside:url(#rect865);fill:none;fill-opacity:1;stroke:#ff0000;stroke-width:0.0283754;stroke-miterlimit:4;stroke-dasharray:none;stroke-dashoffset:0;stroke-opacity:1"
       id="g1861"
       transform="matrix(3.5241843,0,0,3.5241843,-99.613933,-116.45002)"
       aria-label="J" />
    <g
       style="font-style:normal;font-weight:normal;font-size:10.5833px;line-height:1.25;font-family:sans-serif;letter-spacing:0px;word-spacing:0px;white-space:pre;shape-inside:url(#rect888);fill:none;fill-opacity:1;stroke:#ff0000;stroke-width:0.0283754;stroke-miterlimit:4;stroke-dasharray:none;stroke-dashoffset:0;stroke-opacity:1"
       id="g1902"
       transform="matrix(3.5241843,0,0,3.5241843,-67.863931,-116.45005)"
       aria-label="O" />
    <g
       aria-label="I"
       transform="matrix(3.5241843,0,0,3.5241843,-4.3639276,-116.45005)"
       id="g1950"
       style="font-style:normal;font-variant:normal;font-weight:500;font-stretch:normal;font-size:25.4px;line-height:1.25;font-family:BLionTale;-inkscape-font-specification:'BLionTale, Medium';font-variant-ligatures:normal;font-variant-caps:normal;font-variant-numeric:normal;font-variant-east-asian:normal;letter-spacing:0px;word-spacing:0px;white-space:pre;shape-inside:url(#rect1935);fill:none;fill-opacity:1;stroke:#ff0000;stroke-width:0.0283754;stroke-miterlimit:4;stroke-dasharray:none;stroke-opacity:1" />
    <g
       aria-label="N"
       transform="matrix(3.5241843,0,0,3.5241843,-67.863931,-68.825038)"
       id="g2003"
       style="font-style:normal;font-variant:normal;font-weight:500;font-stretch:normal;font-size:25.4px;line-height:1.25;font-family:BLionTale;-inkscape-font-specification:'BLionTale, Medium';font-variant-ligatures:normal;font-variant-caps:normal;font-variant-numeric:normal;font-variant-east-asian:normal;letter-spacing:0px;word-spacing:0px;white-space:pre;shape-inside:url(#rect1912);fill:none;fill-opacity:1;stroke:#ff0000;stroke-width:0.0283754;stroke-miterlimit:4;stroke-dasharray:none;stroke-opacity:1" />
    <g
       aria-label="R"
       transform="matrix(3.5241843,0,0,3.5241843,-36.113929,-68.825038)"
       id="g2026"
       style="font-style:normal;font-variant:normal;font-weight:500;font-stretch:normal;font-size:25.4px;line-height:1.25;font-family:BLionTale;-inkscape-font-specification:'BLionTale, Medium';font-variant-ligatures:normal;font-variant-caps:normal;font-variant-numeric:normal;font-variant-east-asian:normal;letter-spacing:0px;word-spacing:0px;white-space:pre;shape-inside:url(#rect2011);fill:none;fill-opacity:1;stroke:#ff0000;stroke-width:0.0283754;stroke-miterlimit:4;stroke-dasharray:none;stroke-opacity:1" />
    <g
       aria-label="D"
       transform="matrix(3.5241843,0,0,3.5241843,-4.363928,-68.825038)"
       id="g2088"
       style="font-style:normal;font-variant:normal;font-weight:500;font-stretch:normal;font-size:25.4px;line-height:1.25;font-family:BLionTale;-inkscape-font-specification:'BLionTale, Medium';font-variant-ligatures:normal;font-variant-caps:normal;font-variant-numeric:normal;font-variant-east-asian:normal;letter-spacing:0px;word-spacing:0px;white-space:pre;shape-inside:url(#rect2073);fill:none;fill-opacity:1;stroke:#ff0000;stroke-width:0.0283754;stroke-miterlimit:4;stroke-dasharray:none;stroke-opacity:1" />
    <g
       style="font-style:normal;font-weight:normal;font-size:10.5833px;line-height:1.25;font-family:sans-serif;letter-spacing:0px;word-spacing:0px;white-space:pre;shape-inside:url(#rect2144);fill:none;fill-opacity:1;stroke:#ff0000;stroke-width:0.1;stroke-miterlimit:4;stroke-dasharray:none;stroke-opacity:1"
       id="text2142" />
    <text
       transform="translate(-6.0940983,-3.7358349)"
       style="font-style:normal;font-weight:normal;font-size:10.5833px;line-height:1.25;font-family:sans-serif;letter-spacing:2.46592px;word-spacing:0px;white-space:pre;shape-inside:url(#rect1122);fill:#000000;fill-opacity:1;stroke:none;"
       id="text1120"
       xml:space="preserve"><tspan
         x="22.519531"
         y="77.157936"><tspan
           style="font-style:normal;font-variant:normal;font-weight:normal;font-stretch:normal;font-size:22.5778px;font-family:BLionTale;-inkscape-font-specification:'BLionTale, Normal';font-variant-ligatures:normal;font-variant-caps:normal;font-variant-numeric:normal;font-variant-east-asian:normal">NO</tspan><tspan
           style="font-style:normal;font-variant:normal;font-weight:normal;font-stretch:normal;font-size:22.5778px;font-family:BLionTale;-inkscape-font-specification:'BLionTale, Normal';font-variant-ligatures:normal;font-variant-caps:normal;font-variant-numeric:normal;font-variant-east-asian:normal">Ë</tspan><tspan
           style="font-style:normal;font-variant:normal;font-weight:normal;font-stretch:normal;font-size:22.5778px;font-family:BLionTale;-inkscape-font-specification:'BLionTale, Normal';font-variant-ligatures:normal;font-variant-caps:normal;font-variant-numeric:normal;font-variant-east-asian:normal">L</tspan><tspan
           style="font-style:normal;font-variant:normal;font-weight:normal;font-stretch:normal;font-size:22.5778px;font-family:BLionTale;-inkscape-font-specification:'BLionTale, Normal';font-variant-ligatures:normal;font-variant-caps:normal;font-variant-numeric:normal;font-variant-east-asian:normal">★☀♥</tspan></tspan></text>
  </g>
</svg>
