<?xml version="1.0" encoding="UTF-8" standalone="no"?>
<svg
   xmlns:dc="http://purl.org/dc/elements/1.1/"
   xmlns:cc="http://creativecommons.org/ns#"
   xmlns:rdf="http://www.w3.org/1999/02/22-rdf-syntax-ns#"
   xmlns:svg="http://www.w3.org/2000/svg"
   xmlns="http://www.w3.org/2000/svg"
   xmlns:sodipodi="http://sodipodi.sourceforge.net/DTD/sodipodi-0.dtd"
   xmlns:inkscape="http://www.inkscape.org/namespaces/inkscape"
   sodipodi:docname="choco-letters.svg"
   inkscape:version="1.0 (1.0+r73+1)"
   id="svg8"
   version="1.1"
   viewBox="0 0 210 297"
   height="297mm"
   width="210mm">
  <defs
     id="defs2">
    <rect
       id="rect857"
       height="53.847942"
       width="73.912267"
       y="51.248475"
       x="32.267176" />
    <rect
       x="32.267176"
       y="51.248475"
       width="73.912267"
       height="53.847942"
       id="rect865" />
    <rect
       x="32.267176"
       y="51.248475"
       width="73.912267"
       height="53.847942"
       id="rect882" />
    <rect
       id="rect888"
       height="53.847942"
       width="73.912267"
       y="51.248475"
       x="32.267176" />
    <rect
       id="rect903"
       height="53.847942"
       width="73.912267"
       y="51.248475"
       x="32.267176" />
    <rect
       x="32.267176"
       y="51.248475"
       width="73.912267"
       height="53.847942"
       id="rect909" />
    <rect
       x="32.267176"
       y="51.248475"
       width="73.912267"
       height="53.847942"
       id="rect924" />
    <rect
       id="rect930"
       height="53.847942"
       width="73.912267"
       y="51.248475"
       x="32.267176" />
    <rect
       id="rect945"
       height="53.847942"
       width="73.912267"
       y="51.248475"
       x="32.267176" />
    <rect
       x="32.267176"
       y="51.248475"
       width="73.912267"
       height="53.847942"
       id="rect951" />
    <rect
       x="32.267176"
       y="51.248475"
       width="73.912267"
       height="53.847942"
       id="rect966" />
    <rect
       id="rect972"
       height="53.847942"
       width="73.912267"
       y="51.248475"
       x="32.267176" />
  </defs>
  <sodipodi:namedview
     inkscape:window-maximized="1"
     inkscape:window-y="27"
     inkscape:window-x="70"
     inkscape:window-height="836"
     inkscape:window-width="1370"
     showgrid="false"
     inkscape:document-rotation="0"
     inkscape:current-layer="text970"
     inkscape:document-units="mm"
     inkscape:cy="604.85187"
     inkscape:cx="496.68347"
     inkscape:zoom="0.49497475"
     inkscape:pageshadow="2"
     inkscape:pageopacity="0.0"
     borderopacity="1.0"
     bordercolor="#666666"
     pagecolor="#ffffff"
     id="base" />
  <metadata
     id="metadata5">
    <rdf:RDF>
      <cc:Work
         rdf:about="">
        <dc:format>image/svg+xml</dc:format>
        <dc:type
           rdf:resource="http://purl.org/dc/dcmitype/StillImage" />
        <dc:title></dc:title>
      </cc:Work>
    </rdf:RDF>
  </metadata>
  <g
     id="layer1"
     inkscape:groupmode="layer"
     inkscape:label="Layer 1">
    <rect
       y="9.8901014"
       x="9.5401058"
       height="30"
       width="44"
       id="rect833"
       style="fill:none;stroke:#ff0000;stroke-width:0.284001;stop-color:#000000" />
    <rect
       transform="rotate(90)"
       style="fill:none;stroke:#ff0000;stroke-width:0.284001;stop-color:#000000"
       id="rect835"
       width="44"
       height="30"
       x="52.874115"
       y="-39.540134" />
    <text
       transform="matrix(3.5241843,0,0,3.5241843,-99.613933,-161.9584)"
       style="font-style:normal;font-weight:normal;font-size:10.5833px;line-height:1.25;font-family:sans-serif;letter-spacing:0px;word-spacing:0px;white-space:pre;shape-inside:url(#rect857);fill:none;fill-opacity:1;stroke:#ff0000;stroke-width:0.0851261;stroke-miterlimit:4;stroke-dasharray:none;stroke-opacity:1;"
       id="text855"
       xml:space="preserve"><tspan
         x="32.267578"
         y="72.203047"><tspan
           style="font-style:normal;font-variant:normal;font-weight:500;font-stretch:normal;font-size:25.4px;font-family:BLionTale;-inkscape-font-specification:'BLionTale, Medium';font-variant-ligatures:normal;font-variant-caps:normal;font-variant-numeric:normal;font-variant-east-asian:normal;fill:none;stroke:#ff0000;stroke-width:0.0851261;stroke-miterlimit:4;stroke-dasharray:none;stroke-opacity:1">J</tspan></tspan></text>
    <g
       style="font-style:normal;font-weight:normal;font-size:10.5833px;line-height:1.25;font-family:sans-serif;letter-spacing:0px;word-spacing:0px;white-space:pre;shape-inside:url(#rect865);fill:none;fill-opacity:1;stroke:#ff0000;stroke-width:0.0851261;stroke-miterlimit:4;stroke-dasharray:none;stroke-opacity:1"
       id="text863"
       transform="matrix(3.5241843,0,0,3.5241843,-99.613933,-161.9584)"
       aria-label="J">
      <path
         d="m 37.947266,62.326172 c -1.697486,0.117973 -3.416975,0.01735 -5.123047,0.05078 -0.02778,0.519035 -0.494266,1.035758 -0.28711,1.535156 0.601817,0.310293 1.368469,-0.227802 1.988282,0.02734 0.0974,1.774909 0.387525,3.576758 0.301846,5.348928 -0.06177,0.436058 -0.336544,0.987195 -0.862393,0.79951 -0.462794,0.132382 -1.469886,-0.152615 -1.400391,0.626953 -0.06392,0.475014 0.04742,1.212886 0.695703,1.146484 0.737168,-0.172178 1.595063,0.155057 2.263282,-0.193359 0.409117,-0.702918 1.090683,-1.414554 0.808752,-2.297322 -0.106173,-1.833836 -0.212345,-3.667671 -0.318518,-5.501506 0.753234,-0.06664 1.506633,-0.131466 2.259766,-0.199219 0.12046,-0.423193 0.479978,-1.398213 -0.326172,-1.34375 z"
         style="font-style:normal;font-variant:normal;font-weight:500;font-stretch:normal;font-size:25.4px;font-family:BLionTale;-inkscape-font-specification:'BLionTale, Medium';font-variant-ligatures:normal;font-variant-caps:normal;font-variant-numeric:normal;font-variant-east-asian:normal;fill:none;stroke:#ff0000;stroke-width:0.08512608;stroke-miterlimit:4;stroke-dasharray:0.08512608,0.08512608;stroke-opacity:1;stroke-dashoffset:0"
         id="path867" />
    </g>
    <rect
       y="-71.290138"
       x="52.874115"
       height="30"
       width="44"
       id="rect872"
       style="fill:none;stroke:#ff0000;stroke-width:0.284001;stop-color:#000000"
       transform="rotate(90)" />
    <text
       xml:space="preserve"
       id="text876"
       style="font-style:normal;font-weight:normal;font-size:10.5833px;line-height:1.25;font-family:sans-serif;letter-spacing:0px;word-spacing:0px;white-space:pre;shape-inside:url(#rect882);fill:none;fill-opacity:1;stroke:#ff0000;stroke-width:0.0851261;stroke-miterlimit:4;stroke-dasharray:none;stroke-opacity:1;"
       transform="matrix(3.5241843,0,0,3.5241843,-67.863931,-161.9584)"><tspan
         x="32.267578"
         y="72.203047"><tspan
           style="font-style:normal;font-variant:normal;font-weight:500;font-stretch:normal;font-size:25.4px;font-family:BLionTale;-inkscape-font-specification:'BLionTale, Medium';font-variant-ligatures:normal;font-variant-caps:normal;font-variant-numeric:normal;font-variant-east-asian:normal;fill:none;stroke:#ff0000;stroke-width:0.0851261;stroke-miterlimit:4;stroke-dasharray:none;stroke-opacity:1">O</tspan></tspan></text>
    <g
       style="font-style:normal;font-weight:normal;font-size:10.5833px;line-height:1.25;font-family:sans-serif;letter-spacing:0px;word-spacing:0px;white-space:pre;shape-inside:url(#rect888);fill:none;fill-opacity:1;stroke:#ff0000;stroke-width:0.0851261;stroke-miterlimit:4;stroke-dasharray:none;stroke-opacity:1"
       id="text886"
       transform="matrix(3.5241843,0,0,3.5241843,-67.863931,-161.9584)"
       aria-label="O">
      <path
         d="m 35.34375,62.126953 c -0.692892,0.102811 -1.589403,0.100245 -2.03125,0.783203 -0.717637,0.634 -0.366517,1.718636 -0.559877,2.551115 -0.177768,1.611982 -0.07785,3.237475 0.118471,4.837557 0.20287,0.592568 0.889853,0.772805 1.231715,1.263107 0.329673,0.322476 0.748801,0.672668 1.196223,0.347543 0.534676,-0.08054 1.213703,-0.326458 1.208777,-0.974418 0.324272,-1.317257 0.880854,-2.599564 1.026046,-3.947352 -0.05757,-1.259572 -0.114684,-2.519165 -0.172527,-3.778724 -0.67842,-0.342042 -1.302994,-0.84404 -2.017578,-1.082031 z m -0.251953,1.277344 c 0.364948,0.07263 0.832337,0.06144 0.78093,0.528243 0.260386,1.559695 0.06104,3.160444 -0.188731,4.697661 -0.211072,0.603735 -0.422143,1.20747 -0.633215,1.811205 -0.462504,-0.163517 -0.910924,-0.633541 -0.666015,-1.144531 0.05567,-1.390269 0.255594,-2.82435 -0.240376,-4.163202 -0.149725,-0.672199 0.27298,-1.39314 0.79311,-1.737189 l 0.09987,0.0051 z"
         style="font-style:normal;font-variant:normal;font-weight:500;font-stretch:normal;font-size:25.4px;font-family:BLionTale;-inkscape-font-specification:'BLionTale, Medium';font-variant-ligatures:normal;font-variant-caps:normal;font-variant-numeric:normal;font-variant-east-asian:normal;fill:none;stroke:#ff0000;stroke-width:0.0851261;stroke-miterlimit:4;stroke-dasharray:0.0851261,0.0851261;stroke-opacity:1;stroke-dashoffset:0"
         id="path890" />
    </g>
    <rect
       transform="rotate(90)"
       style="fill:none;stroke:#ff0000;stroke-width:0.284001;stop-color:#000000"
       id="rect895"
       width="44"
       height="30"
       x="52.874115"
       y="-103.04012" />
    <text
       transform="matrix(3.5241843,0,0,3.5241843,-36.113929,-161.9584)"
       style="font-style:normal;font-weight:normal;font-size:10.5833px;line-height:1.25;font-family:sans-serif;letter-spacing:0px;word-spacing:0px;white-space:pre;shape-inside:url(#rect903);fill:none;fill-opacity:1;stroke:#ff0000;stroke-width:0.0851261;stroke-miterlimit:4;stroke-dasharray:none;stroke-opacity:1;"
       id="text899"
       xml:space="preserve"><tspan
         x="32.267578"
         y="72.203047"><tspan
           style="font-style:normal;font-variant:normal;font-weight:500;font-stretch:normal;font-size:25.4px;font-family:BLionTale;-inkscape-font-specification:'BLionTale, Medium';font-variant-ligatures:normal;font-variant-caps:normal;font-variant-numeric:normal;font-variant-east-asian:normal;fill:none;stroke:#ff0000;stroke-width:0.0851261;stroke-miterlimit:4;stroke-dasharray:none;stroke-opacity:1">Y</tspan></tspan></text>
    <g
       style="font-style:normal;font-weight:normal;font-size:10.5833px;line-height:1.25;font-family:sans-serif;letter-spacing:0px;word-spacing:0px;white-space:pre;shape-inside:url(#rect909);fill:none;fill-opacity:1;stroke:#ff0000;stroke-width:0.0851261;stroke-miterlimit:4;stroke-dasharray:none;stroke-opacity:1"
       id="text907"
       transform="matrix(3.5241843,0,0,3.5241843,-36.113929,-161.9584)"
       aria-label="Y">
      <path
         d="m 33.164062,62.083984 c -0.386092,0.136006 -0.795764,0.513294 -0.520804,0.955866 0.746328,1.50057 1.456755,3.025266 2.188773,4.536322 -0.675185,1.375624 -1.349934,2.751462 -2.02539,4.126953 0.411513,0.316245 1.235308,0.640736 1.46875,-0.04492 1.019488,-2.177956 2.328907,-4.236851 3.126082,-6.522107 0.388688,-0.938438 0.774368,-1.878128 1.164933,-2.815784 -0.534738,0.101719 -1.266934,-0.522033 -1.65039,0.05859 -0.379622,1.1927 -0.861292,2.358821 -1.28125,3.541016 -0.779093,-1.311319 -1.559769,-2.621701 -2.337891,-3.933594 l -0.08057,0.05924 z"
         style="font-style:normal;font-variant:normal;font-weight:500;font-stretch:normal;font-size:25.4px;font-family:BLionTale;-inkscape-font-specification:'BLionTale, Medium';font-variant-ligatures:normal;font-variant-caps:normal;font-variant-numeric:normal;font-variant-east-asian:normal;fill:none;stroke:#ff0000;stroke-width:0.0851261;stroke-miterlimit:4;stroke-dasharray:0.0851261,0.0851261;stroke-opacity:1;stroke-dashoffset:0"
         id="path911" />
    </g>
    <rect
       y="-134.79013"
       x="52.874115"
       height="30"
       width="44"
       id="rect916"
       style="fill:none;stroke:#ff0000;stroke-width:0.284001;stop-color:#000000"
       transform="rotate(90)" />
    <text
       xml:space="preserve"
       id="text920"
       style="font-style:normal;font-weight:normal;font-size:10.5833px;line-height:1.25;font-family:sans-serif;letter-spacing:0px;word-spacing:0px;white-space:pre;shape-inside:url(#rect924);fill:none;fill-opacity:1;stroke:#ff0000;stroke-width:0.0851261;stroke-miterlimit:4;stroke-dasharray:none;stroke-opacity:1;"
       transform="matrix(3.5241843,0,0,3.5241843,-6.4805944,-161.9584)"><tspan
         x="32.267578"
         y="72.203047"><tspan
           style="font-style:normal;font-variant:normal;font-weight:500;font-stretch:normal;font-size:25.4px;font-family:BLionTale;-inkscape-font-specification:'BLionTale, Medium';font-variant-ligatures:normal;font-variant-caps:normal;font-variant-numeric:normal;font-variant-east-asian:normal;fill:none;stroke:#ff0000;stroke-width:0.0851261;stroke-miterlimit:4;stroke-dasharray:none;stroke-opacity:1">E</tspan></tspan></text>
    <g
       style="font-style:normal;font-weight:normal;font-size:10.5833px;line-height:1.25;font-family:sans-serif;letter-spacing:0px;word-spacing:0px;white-space:pre;shape-inside:url(#rect930);fill:none;fill-opacity:1;stroke:#ff0000;stroke-width:0.0851261;stroke-miterlimit:4;stroke-dasharray:none;stroke-opacity:1"
       id="text928"
       transform="matrix(3.5241843,0,0,3.5241843,-6.4805944,-161.9584)"
       aria-label="E">
      <path
         d="m 38.292969,61.970703 c -1.856116,0.125057 -3.712263,0.249663 -5.56836,0.375 0.04455,3.108729 0.09074,6.217436 0.134766,9.326172 1.785181,-0.174872 3.570458,-0.348807 5.355469,-0.525391 -0.322676,-0.515219 0.03751,-1.47126 -0.685547,-1.693359 -0.948782,-0.129143 -2.079907,-0.132209 -2.917969,-0.337891 0.129709,-0.513881 -0.06426,-1.479019 0.744091,-1.411918 1.089848,-0.183079 2.179789,-0.365611 3.269581,-0.549019 0.105361,-0.444846 0.344106,-1.352249 -0.378906,-1.373047 -1.103429,0.01095 -2.208326,-0.198523 -3.3125,-0.273438 0.126302,-0.652343 0.252604,-1.304687 0.378906,-1.957031 1.274744,-0.05329 2.549454,-0.107388 3.824219,-0.160156 -0.353247,-0.420817 -0.266988,-1.223549 -0.84375,-1.419922 z"
         style="font-style:normal;font-variant:normal;font-weight:500;font-stretch:normal;font-size:25.4px;font-family:BLionTale;-inkscape-font-specification:'BLionTale, Medium';font-variant-ligatures:normal;font-variant-caps:normal;font-variant-numeric:normal;font-variant-east-asian:normal;fill:none;stroke:#ff0000;stroke-width:0.0851261;stroke-miterlimit:4;stroke-dasharray:0.0851261, 0.0851261;stroke-dashoffset:0;stroke-opacity:1"
         id="path932" />
    </g>
    <rect
       transform="rotate(90)"
       style="fill:none;stroke:#ff0000;stroke-width:0.284001;stop-color:#000000"
       id="rect937"
       width="44"
       height="30"
       x="52.874115"
       y="-166.54016" />
    <text
       transform="matrix(3.5241843,0,0,3.5241843,25.269405,-161.9584)"
       style="font-style:normal;font-weight:normal;font-size:10.5833px;line-height:1.25;font-family:sans-serif;letter-spacing:0px;word-spacing:0px;white-space:pre;shape-inside:url(#rect945);fill:none;fill-opacity:1;stroke:#ff0000;stroke-width:0.0851261;stroke-miterlimit:4;stroke-dasharray:none;stroke-opacity:1;"
       id="text941"
       xml:space="preserve"><tspan
         x="32.267578"
         y="72.203047"><tspan
           style="font-style:normal;font-variant:normal;font-weight:500;font-stretch:normal;font-size:25.4px;font-family:BLionTale;-inkscape-font-specification:'BLionTale, Medium';font-variant-ligatures:normal;font-variant-caps:normal;font-variant-numeric:normal;font-variant-east-asian:normal;fill:none;stroke:#ff0000;stroke-width:0.0851261;stroke-miterlimit:4;stroke-dasharray:none;stroke-opacity:1">U</tspan></tspan></text>
    <g
       style="font-style:normal;font-weight:normal;font-size:10.5833px;line-height:1.25;font-family:sans-serif;letter-spacing:0px;word-spacing:0px;white-space:pre;shape-inside:url(#rect951);fill:none;fill-opacity:1;stroke:#ff0000;stroke-width:0.0851261;stroke-miterlimit:4;stroke-dasharray:none;stroke-opacity:1"
       id="text949"
       transform="matrix(3.5241843,0,0,3.5241843,25.269405,-161.9584)"
       aria-label="U">
      <path
         d="m 32.910156,62.554688 c -0.476013,0.204586 -0.116124,0.893419 -0.215092,1.298042 -0.03361,1.749029 0.04308,3.508618 0.435011,5.210462 0.107816,0.609001 0.07928,1.368327 0.756644,1.643839 0.670364,0.443838 1.23963,1.234775 2.132812,1.105469 0.854625,0.106378 1.791697,0.0099 2.509766,-0.462891 0.361188,-0.620317 0.22307,-1.379104 0.410156,-2.0625 0.274528,-1.849634 0.26992,-3.729733 0.15686,-5.588402 0.128103,-0.461168 -0.16131,-1.014762 -0.69573,-0.900893 -0.541575,-0.03942 -1.130074,-0.411302 -1.654489,-0.118126 0.365331,1.817593 1.025991,3.580799 0.798099,5.466461 -0.01642,0.705004 -0.09471,1.403414 -0.270755,2.060882 -0.751484,-0.09324 -1.549169,-0.228945 -2.076172,-0.814453 -0.558123,-0.594502 -0.33958,-1.516401 -0.599045,-2.245434 -0.241994,-1.439466 -0.353446,-2.89678 -0.535721,-4.34441 -0.401738,9.81e-4 -0.750018,-0.285861 -1.152344,-0.248046 z"
         style="font-style:normal;font-variant:normal;font-weight:500;font-stretch:normal;font-size:25.4px;font-family:BLionTale;-inkscape-font-specification:'BLionTale, Medium';font-variant-ligatures:normal;font-variant-caps:normal;font-variant-numeric:normal;font-variant-east-asian:normal;fill:none;stroke:#ff0000;stroke-width:0.0851261;stroke-miterlimit:4;stroke-dasharray:0.0851261,0.0851261;stroke-opacity:1;stroke-dashoffset:0"
         id="path953" />
    </g>
    <rect
       y="-198.29019"
       x="52.874115"
       height="30"
       width="44"
       id="rect958"
       style="fill:none;stroke:#ff0000;stroke-width:0.284001;stop-color:#000000"
       transform="rotate(90)" />
    <text
       xml:space="preserve"
       id="text962"
       style="font-style:normal;font-weight:normal;font-size:10.5833px;line-height:1.25;font-family:sans-serif;letter-spacing:0px;word-spacing:0px;white-space:pre;shape-inside:url(#rect966);fill:none;fill-opacity:1;stroke:#ff0000;stroke-width:0.0851261;stroke-miterlimit:4;stroke-dasharray:none;stroke-opacity:1;"
       transform="matrix(3.5241843,0,0,3.5241843,58.077741,-161.9584)"><tspan
         x="32.267578"
         y="72.203047"><tspan
           style="font-style:normal;font-variant:normal;font-weight:500;font-stretch:normal;font-size:25.4px;font-family:BLionTale;-inkscape-font-specification:'BLionTale, Medium';font-variant-ligatures:normal;font-variant-caps:normal;font-variant-numeric:normal;font-variant-east-asian:normal;fill:none;stroke:#ff0000;stroke-width:0.0851261;stroke-miterlimit:4;stroke-dasharray:none;stroke-opacity:1">X</tspan></tspan></text>
    <g
       style="font-style:normal;font-weight:normal;font-size:10.5833px;line-height:1.25;font-family:sans-serif;letter-spacing:0px;word-spacing:0px;white-space:pre;shape-inside:url(#rect972);fill:none;fill-opacity:1;stroke:#ff0000;stroke-width:0.0851261;stroke-miterlimit:4;stroke-dasharray:none;stroke-opacity:1"
       id="text970"
       transform="matrix(3.5241843,0,0,3.5241843,58.077741,-161.9584)"
       aria-label="X">
      <path
         d="m 37.589844,62.042969 c -0.993685,0.01323 -0.991693,1.228265 -1.307706,1.895424 -0.241978,0.303254 -0.335937,1.744658 -0.688775,1.195495 -0.700544,-1.015227 -1.399867,-2.0313 -2.101175,-3.045997 -0.388071,0.181303 -1.289839,-0.02408 -1.232422,0.605468 0.869327,1.265305 1.671595,2.596273 2.509765,3.890625 -0.761133,1.555958 -1.521747,3.11217 -2.283203,4.667969 0.357196,0.456161 1.106533,0.478739 1.347031,-0.106835 0.647939,-1.136281 1.422296,-2.200919 2.119766,-3.30918 0.299896,1.188694 0.596496,2.378238 0.898437,3.566406 0.502977,-0.06926 1.109716,0.545292 1.519532,0.128906 -0.04284,-0.837489 -0.43813,-1.674454 -0.617944,-2.507151 -0.199881,-0.924623 -0.628329,-1.857012 -0.60336,-2.79531 0.376452,-1.394636 0.7533,-2.789165 1.129507,-4.183867 -0.232121,0.02021 -0.458765,0.03734 -0.689453,-0.002 z"
         style="font-style:normal;font-variant:normal;font-weight:500;font-stretch:normal;font-size:25.4px;font-family:BLionTale;-inkscape-font-specification:'BLionTale, Medium';font-variant-ligatures:normal;font-variant-caps:normal;font-variant-numeric:normal;font-variant-east-asian:normal;fill:none;stroke:#ff0000;stroke-width:0.0851261;stroke-miterlimit:4;stroke-dasharray:0.0851261,0.0851261;stroke-opacity:1;stroke-dashoffset:0"
         id="path974" />
    </g>
  </g>
</svg>
